<svg width="159" height="24" viewBox="0 0 159 24" fill="none" xmlns="http://www.w3.org/2000/svg">
<path fill-rule="evenodd" clip-rule="evenodd" d="M0 0H4.23407V9.55192C5.76111 7.56484 7.63521 6.9722 9.57872 6.9722C14.4375 6.9722 16.5892 10.284 16.5892 15.3388V21.8748C15.1758 22.028 13.7644 22.188 12.3552 22.3548V15.3737C12.3552 12.2362 10.724 10.9115 8.46814 10.9115C5.96935 10.9115 4.23407 13.038 4.23407 15.6177V23.3949C2.82049 23.5897 1.40913 23.7914 0 24V0Z" fill="black"/>
<line opacity="0.4" x1="25.0894" y1="2.18557e-08" x2="25.0894" y2="24" stroke="black" stroke-opacity="0.4"/>
<path d="M32.5894 5.37838V18.6216H44.9656V17.6189H33.6357V12.5108H44.6048V11.4892H33.6357V6.38108H44.9656V5.37838H32.5894Z" fill="black"/>
<path d="M49.1165 18.6216L55.3227 12.7568L61.5289 18.6216H63.1165L56.0804 12L63.1165 5.37838H61.5289L55.3227 11.2432L49.1165 5.37838H47.5289L54.565 12L47.5289 18.6216H49.1165Z" fill="black"/>
<path d="M65.7337 18.6216H66.7801V14.5162H74.5018C77.4966 14.5162 79.4631 12.7757 79.4631 9.93784C79.4631 7.11892 77.4966 5.37838 74.5018 5.37838H65.7337V18.6216ZM74.2131 6.38108C76.3961 6.38108 78.3626 7.27027 78.3626 9.93784C78.3626 12.6243 76.3961 13.4946 74.2131 13.4946H66.7801V6.38108H74.2131Z" fill="black"/>
<path d="M82.3324 5.37838V18.6216H93.7525V17.6189H83.3788V5.37838H82.3324Z" fill="black"/>
<path d="M102.579 19C107.577 19 110.337 16.2 110.337 11.9811C110.337 7.78108 107.577 5 102.579 5C97.5639 5 94.8217 7.76216 94.8217 11.9811C94.8217 16.2189 97.5639 19 102.579 19ZM102.579 17.9973C98.3758 17.9973 95.9222 15.727 95.9222 11.9811C95.9222 8.25405 98.3578 6.0027 102.579 6.0027C106.801 6.0027 109.219 8.27297 109.219 11.9811C109.219 15.7081 106.783 17.9973 102.579 17.9973Z" fill="black"/>
<path d="M124.408 12.6054C125.833 12.0568 126.555 10.9405 126.555 9.18108C126.555 6.58919 124.949 5.37838 121.846 5.37838H113.186V18.6216H114.233V13.3811H123.398C124.679 13.3811 125.328 13.9297 125.328 15.1973V18.6216H126.375V15.0081C126.375 13.6459 125.617 12.7946 124.408 12.6054ZM121.666 6.38108C123.975 6.38108 125.454 6.94865 125.454 9.31351C125.454 11.6784 123.975 12.3595 121.666 12.3595H114.233V6.38108H121.666Z" fill="black"/>
<path d="M129.785 5.37838V18.6216H142.161V17.6189H130.831V12.5108H141.8V11.4892H130.831V6.38108H142.161V5.37838H129.785Z" fill="black"/>
<path d="M156.442 12.6054C157.868 12.0568 158.589 10.9405 158.589 9.18108C158.589 6.58919 156.984 5.37838 153.881 5.37838H145.221V18.6216H146.267V13.3811H155.432C156.713 13.3811 157.363 13.9297 157.363 15.1973V18.6216H158.409V15.0081C158.409 13.6459 157.651 12.7946 156.442 12.6054ZM153.7 6.38108C156.009 6.38108 157.489 6.94865 157.489 9.31351C157.489 11.6784 156.009 12.3595 153.7 12.3595H146.267V6.38108H153.7Z" fill="black"/>
</svg>
